<svg width="20" height="22" viewBox="0 0 20 22" fill="none" xmlns="http://www.w3.org/2000/svg">
<path d="M10 20.1667C9.07953 20.1667 8.33334 19.3459 8.33334 18.3333H11.6667C11.6667 19.3459 10.9205 20.1667 10 20.1667ZM16.6667 17.4167H3.33334V15.5833L5 14.6667V9.62501C5 6.45151 6.18417 4.39359 8.33334 3.83168V1.83334H11.6667V3.83168C13.8158 4.39268 15 6.44968 15 9.62501V14.6667L16.6667 15.5833V17.4167ZM10 5.27084C8.98306 5.19861 8.00232 5.69918 7.39584 6.60001C6.87712 7.50252 6.62262 8.55836 6.66667 9.62501V15.5833H13.3333V9.62501C13.3773 8.55837 13.1228 7.50254 12.6042 6.60001C11.9977 5.69918 11.0169 5.19861 10 5.27084Z" fill="#2E3A59"/>
</svg>
